<?xml version="1.0" encoding="utf-8"?>
<!-- Generator: Adobe Illustrator 14.0.0, SVG Export Plug-In . SVG Version: 6.00 Build 43363)  -->
<!DOCTYPE svg PUBLIC "-//W3C//DTD SVG 1.1//EN" "http://www.w3.org/Graphics/SVG/1.1/DTD/svg11.dtd">
<svg version="1.1" id="Layer_1" xmlns="http://www.w3.org/2000/svg" xmlns:xlink="http://www.w3.org/1999/xlink" x="0px" y="0px"
	 width="595px" height="842px" viewBox="0 0 595 842" enable-background="new 0 0 595 842" xml:space="preserve">
<rect x="202.24" y="324.752" fill-rule="evenodd" clip-rule="evenodd" fill="#FFFFFF" width="192.672" height="192.672"/>
<radialGradient id="SVGID_1_" cx="235" cy="413" r="40.7001" gradientUnits="userSpaceOnUse">
	<stop  offset="0" style="stop-color:#ED1B2F"/>
	<stop  offset="0.1177" style="stop-color:#E71B2D"/>
	<stop  offset="0.2583" style="stop-color:#DC192B"/>
	<stop  offset="0.4107" style="stop-color:#CA1526"/>
	<stop  offset="0.5714" style="stop-color:#B00F1F"/>
	<stop  offset="0.7387" style="stop-color:#900311"/>
	<stop  offset="0.9089" style="stop-color:#6B0000"/>
	<stop  offset="1" style="stop-color:#540000"/>
</radialGradient>
<path fill-rule="evenodd" clip-rule="evenodd" fill="url(#SVGID_1_)" stroke="#000000" stroke-width="0.5" stroke-linecap="round" stroke-linejoin="round" d="
	M227.656,440.528c12.384,0,22.536-10.224,22.536-22.68c0-12.528-10.152-22.752-22.536-22.752c-12.456,0-22.608,10.224-22.608,22.752
	C205.048,430.304,215.2,440.528,227.656,440.528z"/>
<linearGradient id="SVGID_2_" gradientUnits="userSpaceOnUse" x1="317.314" y1="397" x2="317.314" y2="447.3281">
	<stop  offset="0" style="stop-color:#D2AC34"/>
	<stop  offset="0.44" style="stop-color:#D2AC39"/>
	<stop  offset="0.97" style="stop-color:#FFFFFF"/>
	<stop  offset="1" style="stop-color:#FFFFFF"/>
</linearGradient>
<path fill-rule="evenodd" clip-rule="evenodd" fill="url(#SVGID_2_)" d="M242.56,447.08c2.808-0.288,7.992-2.952,7.992-7.704v-29.52
	l1.368,0.504v-4.68c4.68-0.36,8.928,0.36,12.744,2.016c-6.48-6.48-13.536-10.152-21.312-10.944c2.808,1.224,5.328,2.808,7.416,4.968
	c-1.656-0.792-3.456-1.152-5.256-1.152c1.656,0.864,2.952,1.8,3.672,2.952h-4.968c1.008,1.08,2.16,2.16,2.232,3.312v25.2
	l1.152-0.576c-0.72,3.24-1.944,5.904-3.672,8.064l3.096-1.512C246.52,441.464,245.008,444.488,242.56,447.08L242.56,447.08z
	 M311.464,436.064v-21.672l-2.232-1.944h9.216l2.088,4.824l-3.24-2.232h-4.032l2.088,2.16v5.256h1.512l2.016-1.8v3.744h-3.672v7.488
	h2.088l3.096-3.528c-0.144,2.16-0.648,5.616-1.944,8.424c-1.224,2.808-3.313,4.968-5.832,5.112c-1.08,0.072-2.448-0.072-3.744-0.936
	c2.808,0.144,3.888-0.432,5.4-2.736h-6.408L311.464,436.064L311.464,436.064z M337.456,406.472h6.192
	c-3.456-1.8-7.56-3.312-11.736-3.96c2.88-1.008,6.408-1.656,9.792-1.584c2.16,0,4.32,0.216,6.12,1.008l-1.728,0.288l-0.864,0.504
	c5.472,2.52,10.296,6.984,11.016,13.176c-1.224-2.52-3.456-5.76-6.696-5.616c-3.816,0.144-8.352,6.552-8.28,11.448
	c0,2.16,0.72,4.32,1.368,6.264c-1.512-1.44-2.448-2.232-3.096-4.248c0,8.424,5.04,19.224,13.536,19.8
	c4.464,0.288,7.056-1.728,10.584-4.824c-3.024,4.248-5.616,6.192-11.376,6.336c-10.512,0.144-19.008-9.216-18.792-20.376
	c0.144-6.408,2.664-10.728,6.984-15.408L337.456,406.472L337.456,406.472z M359.992,413.744c1.008-1.368,1.944-2.736,3.384-3.024
	c0.504-0.144,1.152-0.144,1.872,0.144v30.312h8.064c-2.088-1.224-3.312-2.16-4.032-4.608v-26.064h3.384
	c0.288,2.376-0.072,4.464-1.008,6.336c2.952-2.376,4.032-4.32,4.248-8.136h-11.736c-0.864-1.512-0.216-2.52,0.648-3.888
	C361.936,406.976,360.424,410.216,359.992,413.744L359.992,413.744z M376.912,411.44h11.448l-2.232,1.512
	c0.864-0.288,1.8-0.36,2.736-0.216c2.304,0.288,3.6,5.832,3.096,8.352c-0.864-2.016-1.224-6.552-6.696-6.624
	c-1.944,0-5.112,3.024-7.56,5.688c2.448,0.504,4.896,2.52,6.84,4.176c0.072-1.224-0.216-1.872-0.576-3.024
	c4.032,3.24,5.832,6.12,5.4,11.088c-0.648,6.624-4.32,12.672-11.664,12.744c-3.24,0.072-5.472-1.152-7.056-3.6
	c1.224,0.936,3.888,2.952,7.128,2.448c4.248-0.576,7.272-4.68,7.272-9.216c0-4.032-4.32-8.352-7.992-9.432
	c-0.576,1.8,0.216,3.168,1.224,4.68c-2.736-2.088-4.968-3.96-6.984-6.624l3.528-2.736l-1.8-2.304l7.056-5.544l-1.728-0.648
	L376.912,411.44L376.912,411.44z M349.264,415.976l2.88,1.296l-3.816,19.224l-2.448,2.016H352l2.088-12.744L357.76,428v10.512h5.904
	l-1.728-2.016v-19.584l0.936-0.936H349.264L349.264,415.976z M353.368,423.032l5.904,2.52l0.144-5.76l-2.088-1.872l0.144,2.52
	l-3.168-2.88L353.368,423.032L353.368,423.032z M326.008,422.24v-11.304c2.52,1.224,3.744,3.672,3.672,5.904
	C329.608,418.928,328.384,421.376,326.008,422.24L326.008,422.24z M322.12,435.56l-3.024,2.88h7.056v-13.824
	c1.8,1.944,3.024,4.896,2.808,10.152c-0.144,5.328-4.032,8.424-9.072,9.216c-4.392,0.576-8.064-0.936-11.016-2.736
	c3.024,3.168,6.48,4.536,10.944,4.464c5.976-0.144,11.664-4.752,12.456-10.728c0.36-2.88,0.576-7.488-1.368-9.72
	c0.504,1.584,0.36,2.952-0.144,4.392c-0.792-1.872-1.8-4.032-3.024-5.688c3.6-1.08,5.4-3.24,5.4-7.056
	c-0.072-5.04-3.96-8.424-8.784-8.424h-4.176l1.944,1.656V435.56L322.12,435.56z M296.2,438.152l2.376-1.656
	c-0.216,2.232-1.368,3.168-2.808,3.384c-1.296,0.216-2.808-0.072-4.248-0.576c1.728,2.232,3.672,3.168,5.616,3.168
	c2.952,0.072,5.832-1.944,7.992-4.68c2.088-2.592,3.096-6.696,3.096-10.584c0.072-1.944-0.144-3.744-0.576-5.4
	c1.296,0.72,2.232,1.872,2.88,3.168c-1.8-9.288-6.264-13.32-15.624-13.464l1.296,1.584V438.152L296.2,438.152z M299.512,435.344
	v-19.44c2.376,1.08,5.76,7.056,5.904,11.376c0.072,3.384-1.008,6.84-2.52,10.224c-0.072-2.088-0.432-3.312-1.368-5.184
	L299.512,435.344L299.512,435.344z M287.56,410.936l-1.512,1.152l4.32,14.328V409.64l-1.728-1.656h5.328v29.952h-4.824v-6.552
	l-3.456-10.584v17.784h-7.128l1.728-1.728v-3.312l1.296-1.368v-8.352l1.944-1.944v-10.944H287.56L287.56,410.936z M269.2,412.952
	l1.8,1.584v9.576c-1.368,1.584-2.52,2.88-2.376,5.04c0.216,3.528,2.52,6.12,5.76,6.336c0.648,0.072,1.368,0,2.16-0.144
	c-1.8-1.44-2.448-1.8-2.52-4.176c1.296,1.224,2.808,1.872,3.888,1.8c1.584-0.072,2.952-2.16,2.952-3.888v-20.952h-6.48l2.52,1.8
	v19.512c-0.216,0.504-0.648,0.864-1.08,0.936c-0.936,0.072-2.088-0.936-2.16-2.016v-15.408H269.2L269.2,412.952z M253.432,407.912
	h6.192v7.776l3.816,3.744v-7.2l-1.584-1.656h5.472v26.856h-5.4l1.512-1.512v-13.032L259.624,419v17.496h-5.328l2.016-1.656v-16.848
	l-1.44,1.656v-10.296L253.432,407.912z"/>
<linearGradient id="SVGID_3_" gradientUnits="userSpaceOnUse" x1="317.71" y1="397" x2="317.71" y2="422.0302">
	<stop  offset="0" style="stop-color:#00B9F2"/>
	<stop  offset="1" style="stop-color:#FFFFFF"/>
</linearGradient>
<path fill-rule="evenodd" clip-rule="evenodd" fill="url(#SVGID_3_)" d="M384.4,421.736h-0.36c0-0.144-0.072-0.288-0.072-0.432
	C384.112,421.448,384.256,421.592,384.4,421.736L384.4,421.736z M381.232,421.736c-1.08-0.72-2.304-1.296-3.528-1.584
	c2.448-2.664,5.616-5.688,7.56-5.688c5.472,0.072,5.832,4.608,6.696,6.624c0.504-2.52-0.792-8.064-3.096-8.352
	c-0.936-0.144-1.872-0.072-2.736,0.216l2.232-1.512h-11.448l1.44,0.72l1.728,0.648l-7.056,5.544l1.8,2.304l-1.44,1.08H381.232
	L381.232,421.736z M369.28,421.736h-4.032v-10.872c-0.72-0.288-1.368-0.288-1.872-0.144c-1.44,0.288-2.376,1.656-3.384,3.024
	c0.432-3.528,1.944-6.768,4.824-8.928c-0.864,1.368-1.512,2.376-0.648,3.888h11.736c-0.216,3.816-1.296,5.76-4.248,8.136
	c0.936-1.872,1.296-3.96,1.008-6.336h-3.384V421.736L369.28,421.736z M361.936,421.736v-4.824l0.936-0.936h-13.608l2.88,1.296
	l-0.936,4.464h2.376l0.72-4.176l3.168,2.88l-0.144-2.52l2.088,1.872l-0.072,1.944H361.936L361.936,421.736z M341.272,421.736h-7.56
	c0.792-4.824,3.168-8.496,6.768-12.456l-3.024-2.808h6.192c-3.456-1.8-7.56-3.312-11.736-3.96c2.88-1.008,6.408-1.656,9.792-1.584
	c2.16,0,4.32,0.216,6.12,1.008l-1.728,0.288l-0.864,0.504c5.472,2.52,10.296,6.984,11.016,13.176
	c-1.224-2.52-3.456-5.76-6.696-5.616C345.736,410.432,341.272,416.768,341.272,421.736L341.272,421.736z M331.552,421.736
	c1.08-1.152,1.584-2.736,1.584-4.824c-0.072-5.04-3.96-8.424-8.784-8.424h-4.176l1.944,1.656v11.592h3.888v-10.8
	c2.52,1.224,3.744,3.672,3.672,5.904c0,1.728-0.936,3.816-2.664,4.896H331.552L331.552,421.736z M318.88,421.736h-1.224l1.224-1.08
	V421.736L318.88,421.736z M315.352,421.736h-3.888v-7.344l-2.232-1.944h9.216l2.088,4.824l-3.24-2.232h-4.032l2.088,2.16V421.736
	L315.352,421.736z M309.736,421.736c-2.16-6.984-6.624-10.08-14.832-10.224l1.296,1.584v8.64h3.312v-5.832
	c1.44,0.648,3.24,3.096,4.464,5.832H309.736L309.736,421.736z M293.968,421.736h-3.6V409.64l-1.728-1.656h5.328V421.736
	L293.968,421.736z M288.928,421.736l-2.88-9.648l1.512-1.152h-4.032v10.8h2.16V420.8l0.288,0.936H288.928L288.928,421.736z
	 M280.864,421.736h-3.96v-11.808l-2.52-1.8h6.48V421.736L280.864,421.736z M273.664,421.736H271v-7.2l-1.8-1.584h4.464V421.736
	L273.664,421.736z M267.328,421.736h-4.968L259.624,419v2.736h-3.312v-3.744l-1.44,1.656v-10.296l-1.44-1.44h6.192v7.776
	l3.816,3.744v-7.2l-1.584-1.656h5.472V421.736L267.328,421.736z M250.552,421.736v-11.88l1.368,0.504v-4.68
	c4.68-0.36,8.928,0.36,12.744,2.016c-6.48-6.48-13.536-10.152-21.312-10.944c2.808,1.224,5.328,2.808,7.416,4.968
	c-1.656-0.792-3.456-1.152-5.256-1.152c1.656,0.864,2.952,1.8,3.672,2.952h-4.968c1.008,1.08,2.16,2.16,2.232,3.312v14.904H250.552z
	"/>
<path fill-rule="evenodd" clip-rule="evenodd" fill="none" stroke="#000000" stroke-width="0.5" stroke-linecap="round" stroke-linejoin="round" d="
	M242.56,447.08c2.808-0.288,7.992-2.952,7.992-7.704v-29.52l1.368,0.504v-4.68c4.68-0.36,8.928,0.36,12.744,2.016
	c-6.48-6.48-13.536-10.152-21.312-10.944c2.808,1.224,5.328,2.808,7.416,4.968c-1.656-0.792-3.456-1.152-5.256-1.152
	c1.656,0.864,2.952,1.8,3.672,2.952h-4.968c1.008,1.08,2.16,2.16,2.232,3.312v25.2l1.152-0.576c-0.72,3.24-1.944,5.904-3.672,8.064
	l3.096-1.512C246.52,441.464,245.008,444.488,242.56,447.08L242.56,447.08z M311.464,436.064v-21.672l-2.232-1.944h9.216
	l2.088,4.824l-3.24-2.232h-4.032l2.088,2.16v5.256h1.512l2.016-1.8v3.744h-3.672v7.488h2.088l3.096-3.528
	c-0.144,2.16-0.648,5.616-1.944,8.424c-1.224,2.808-3.313,4.968-5.832,5.112c-1.08,0.072-2.448-0.072-3.744-0.936
	c2.808,0.144,3.888-0.432,5.4-2.736h-6.408L311.464,436.064L311.464,436.064z M337.456,406.472h6.192
	c-3.456-1.8-7.56-3.312-11.736-3.96c2.88-1.008,6.408-1.656,9.792-1.584c2.16,0,4.32,0.216,6.12,1.008l-1.728,0.288l-0.864,0.504
	c5.472,2.52,10.296,6.984,11.016,13.176c-1.224-2.52-3.456-5.76-6.696-5.616c-3.816,0.144-8.352,6.552-8.28,11.448
	c0,2.16,0.72,4.32,1.368,6.264c-1.512-1.44-2.448-2.232-3.096-4.248c0,8.424,5.04,19.224,13.536,19.8
	c4.464,0.288,7.056-1.728,10.584-4.824c-3.024,4.248-5.616,6.192-11.376,6.336c-10.512,0.144-19.008-9.216-18.792-20.376
	c0.144-6.408,2.664-10.728,6.984-15.408L337.456,406.472L337.456,406.472z M359.992,413.744c0.432-3.528,1.944-6.768,4.824-8.928
	c-0.864,1.368-1.512,2.376-0.648,3.888h11.736c-0.216,3.816-1.296,5.76-4.248,8.136c0.936-1.872,1.296-3.96,1.008-6.336h-3.384
	v26.064c0.72,2.448,1.944,3.384,4.032,4.608h-8.064v-30.312c-0.72-0.288-1.368-0.288-1.872-0.144
	C361.936,411.008,361,412.376,359.992,413.744L359.992,413.744z M376.912,411.44h11.448l-2.232,1.512
	c0.864-0.288,1.8-0.36,2.736-0.216c2.304,0.288,3.6,5.832,3.096,8.352c-0.864-2.016-1.224-6.552-6.696-6.624
	c-1.944,0-5.112,3.024-7.56,5.688c2.448,0.504,4.896,2.52,6.84,4.176c0.072-1.224-0.216-1.872-0.576-3.024
	c4.032,3.24,5.832,6.12,5.4,11.088c-0.648,6.624-4.32,12.672-11.664,12.744c-3.24,0.072-5.472-1.152-7.056-3.6
	c1.224,0.936,3.888,2.952,7.128,2.448c4.248-0.576,7.272-4.68,7.272-9.216c0-4.032-4.32-8.352-7.992-9.432
	c-0.576,1.8,0.216,3.168,1.224,4.68c-2.736-2.088-4.968-3.96-6.984-6.624l3.528-2.736l-1.8-2.304l7.056-5.544l-1.728-0.648
	L376.912,411.44L376.912,411.44z M349.264,415.976h13.608l-0.936,0.936v19.584l1.728,2.016h-5.904V428l-3.672-2.232L352,438.512
	h-6.12l2.448-2.016l3.816-19.224L349.264,415.976L349.264,415.976z M353.368,423.032l0.936-5.472l3.168,2.88l-0.144-2.52
	l2.088,1.872l-0.144,5.76L353.368,423.032L353.368,423.032z M326.008,422.24v-11.304c2.52,1.224,3.744,3.672,3.672,5.904
	C329.608,418.928,328.384,421.376,326.008,422.24L326.008,422.24z M322.12,435.56v-25.416l-1.944-1.656h4.176
	c4.824,0,8.712,3.384,8.784,8.424c0,3.816-1.8,5.976-5.4,7.056c1.224,1.656,2.232,3.816,3.024,5.688
	c0.504-1.44,0.648-2.808,0.144-4.392c1.944,2.232,1.728,6.84,1.368,9.72c-0.792,5.976-6.48,10.584-12.456,10.728
	c-4.464,0.072-7.92-1.296-10.944-4.464c2.952,1.8,6.624,3.312,11.016,2.736c5.04-0.792,8.928-3.888,9.072-9.216
	c0.216-5.256-1.008-8.208-2.808-10.152v13.824h-7.056L322.12,435.56L322.12,435.56z M296.2,438.152v-25.056l-1.296-1.584
	c9.36,0.144,13.824,4.176,15.624,13.464c-0.648-1.296-1.584-2.448-2.88-3.168c0.432,1.656,0.648,3.456,0.576,5.4
	c0,3.888-1.008,7.992-3.096,10.584c-2.16,2.736-5.04,4.752-7.992,4.68c-1.944,0-3.888-0.936-5.616-3.168
	c1.44,0.504,2.952,0.792,4.248,0.576c1.44-0.216,2.592-1.152,2.808-3.384L296.2,438.152L296.2,438.152z M299.512,435.344v-19.44
	c2.376,1.08,5.76,7.056,5.904,11.376c0.072,3.384-1.008,6.84-2.52,10.224c-0.072-2.088-0.432-3.312-1.368-5.184L299.512,435.344
	L299.512,435.344z M287.56,410.936l-1.512,1.152l4.32,14.328V409.64l-1.728-1.656h5.328v29.952h-4.824v-6.552l-3.456-10.584v17.784
	h-7.128l1.728-1.728v-3.312l1.296-1.368v-8.352l1.944-1.944v-10.944H287.56L287.56,410.936z M269.2,412.952h4.464v15.408
	c0.072,1.08,1.224,2.088,2.16,2.016c0.432-0.072,0.864-0.432,1.08-0.936v-19.512l-2.52-1.8h6.48v20.952
	c0,1.728-1.368,3.816-2.952,3.888c-1.08,0.072-2.592-0.576-3.888-1.8c0.072,2.376,0.72,2.736,2.52,4.176
	c-0.792,0.144-1.512,0.216-2.16,0.144c-3.24-0.216-5.544-2.808-5.76-6.336c-0.144-2.16,1.008-3.456,2.376-5.04v-9.576L269.2,412.952
	L269.2,412.952z M253.432,407.912h6.192v7.776l3.816,3.744v-7.2l-1.584-1.656h5.472v26.856h-5.4l1.512-1.512v-13.032L259.624,419
	v17.496h-5.328l2.016-1.656v-16.848l-1.44,1.656v-10.296L253.432,407.912z"/>
<linearGradient id="SVGID_4_" gradientUnits="userSpaceOnUse" x1="227.6211" y1="406" x2="227.6211" y2="434.8054">
	<stop  offset="0" style="stop-color:#D2AC34"/>
	<stop  offset="0.44" style="stop-color:#D2AC39"/>
	<stop  offset="0.97" style="stop-color:#FFFFFF"/>
	<stop  offset="1" style="stop-color:#FFFFFF"/>
</linearGradient>
<path fill-rule="evenodd" clip-rule="evenodd" fill="url(#SVGID_4_)" d="M243.496,430.304c2.52-3.024,3.816-7.56,3.888-11.952
	c0.144-3.312-0.432-6.624-2.016-9.144c-1.152,0.792-2.448,1.224-4.176,1.512c-2.088,0.36-3.888-0.72-5.4-2.232
	c0.072-0.216,0.504-0.504,0.576-0.576c0.864,0.792,2.52,2.376,4.608,2.088c1.008-0.216,4.176-1.584,4.752-2.88
	c-2.448,0.144-7.128-0.576-9.288-0.72c-1.584-0.144-5.04-0.36-6.696-0.288c-1.584,0.144-3.24,0.072-4.824,0.504
	c-2.16,0.576-3.384,1.44-5.328,2.52c-0.648,0.432-1.152,0.936-1.872,1.296c-0.216,0.144-0.432,0.216-0.648,0.288
	c-1.152,0.072-7.272,2.376-9.072,4.104c-0.072,0.144-0.216,0.36-0.144,0.432c0.072,0.144,0.36,0.216,0.576,0.504
	c0.072,0.144,0.144,0.36,0.144,0.72c-0.072,1.152-0.216,2.52,0.288,3.528c0.288,0.576,0.936,0.72,1.224,1.224
	c0.288,0.576,0.216,1.224,0.504,1.8c0.288,0.72,0.936,1.368,1.44,1.944c0.504,0.576,1.944,1.944,2.448,2.088
	c-0.936-1.728-1.872-2.52-1.872-3.96c-0.144-4.32,5.256-6.264,9.072-6.336c3.024-0.144,5.112,1.08,5.256,4.176
	c0.072,1.728-0.936,3.168-1.656,4.824c-0.36,0.936-1.152,1.656-1.944,2.304c-1.224,0.936-2.736,2.088-4.392,2.16
	c-1.08,0-2.232-0.504-3.024-1.08c0,0.72,0.936,1.872,1.44,2.448c0.288,0.36,0.792,0.936,1.08,1.296
	c0.432,0.432,0.936,0.648,1.512,0.792c0.72,0.288,0.72,0.576,1.512,0.792c0.504,0.144,1.656,0.288,2.52,0.36
	c2.376,0.144,3.96-0.864,5.544-2.592c-0.864,0.432-2.736,0.72-3.096,0.36c-0.216-0.072-0.288-0.432-0.288-0.72
	c-0.144-1.44,0.864-1.728,1.872-2.52c0.72-0.504,1.656-0.936,2.52-1.224c1.224-0.432,3.744-0.792,4.896-1.368
	c2.664-1.368,4.248-4.824,3.744-7.56c-0.288-1.296-0.864-2.448-1.728-3.456l0.792-0.648c1.008,1.152,1.8,2.592,2.088,3.96
	c0.432,2.16-0.648,4.752-1.728,6.624C240.976,426.992,242.92,429.152,243.496,430.304L243.496,430.304z M219.664,410.648
	c0.288-0.432,1.08-0.792,1.8-1.224c1.656-0.936,3.816-1.728,4.824-2.088c0.432-0.216,1.152-0.36,1.44-0.072
	c0.072,0.576-0.72,0.864-1.152,1.224c-0.576,0.504-1.224,1.008-1.872,1.368c-0.792,0.504-1.368,0.936-2.232,1.296
	c-0.432,0.216-1.08,0.288-1.584,0.216C220.456,411.296,219.448,411.08,219.664,410.648z"/>
<linearGradient id="SVGID_5_" gradientUnits="userSpaceOnUse" x1="227.6211" y1="406" x2="227.6211" y2="419.4351">
	<stop  offset="0" style="stop-color:#00B9F2"/>
	<stop  offset="1" style="stop-color:#FFFFFF"/>
</linearGradient>
<path fill-rule="evenodd" clip-rule="evenodd" fill="url(#SVGID_5_)" d="M247.384,419.576c0-0.432,0-0.792,0-1.224
	c0.144-3.312-0.432-6.624-2.016-9.144c-1.152,0.792-2.448,1.224-4.176,1.512c-2.088,0.36-3.888-0.72-5.4-2.232
	c0.072-0.216,0.504-0.504,0.576-0.576c0.864,0.792,2.52,2.376,4.608,2.088c1.008-0.216,4.176-1.584,4.752-2.88
	c-2.448,0.144-7.128-0.576-9.288-0.72c-1.584-0.144-5.04-0.36-6.696-0.288c-1.584,0.144-3.24,0.072-4.824,0.504
	c-2.16,0.576-3.384,1.44-5.328,2.52c-0.648,0.432-1.152,0.936-1.872,1.296c-0.216,0.144-0.432,0.216-0.648,0.288
	c-1.152,0.072-7.272,2.376-9.072,4.104c-0.072,0.144-0.216,0.36-0.144,0.432c0.072,0.144,0.36,0.216,0.576,0.504
	c0.072,0.144,0.144,0.36,0.144,0.72c-0.072,0.936-0.216,2.088,0.072,3.096h5.472c1.8-1.872,5.04-2.736,7.56-2.808
	c2.52-0.144,4.32,0.72,4.968,2.808h12.528c0-0.144,0-0.216,0-0.36c-0.288-1.296-0.864-2.448-1.728-3.456l0.792-0.648
	c1.008,1.152,1.8,2.592,2.088,3.96c0.072,0.144,0.072,0.288,0.072,0.504H247.384L247.384,419.576z M219.664,410.648
	c0.288-0.432,1.08-0.792,1.8-1.224c1.656-0.936,3.816-1.728,4.824-2.088c0.432-0.216,1.152-0.36,1.44-0.072
	c0.072,0.576-0.72,0.864-1.152,1.224c-0.576,0.504-1.224,1.008-1.872,1.368c-0.792,0.504-1.368,0.936-2.232,1.296
	c-0.432,0.216-1.08,0.288-1.584,0.216C220.456,411.296,219.448,411.08,219.664,410.648z"/>
<path fill-rule="evenodd" clip-rule="evenodd" fill="none" stroke="#000000" stroke-width="0.5" stroke-linecap="round" stroke-linejoin="round" d="
	M243.496,430.304c2.52-3.024,3.816-7.56,3.888-11.952c0.144-3.312-0.432-6.624-2.016-9.144c-1.152,0.792-2.448,1.224-4.176,1.512
	c-2.088,0.36-3.888-0.72-5.4-2.232c0.072-0.216,0.504-0.504,0.576-0.576c0.864,0.792,2.52,2.376,4.608,2.088
	c1.008-0.216,4.176-1.584,4.752-2.88c-2.448,0.144-7.128-0.576-9.288-0.72c-1.584-0.144-5.04-0.36-6.696-0.288
	c-1.584,0.144-3.24,0.072-4.824,0.504c-2.16,0.576-3.384,1.44-5.328,2.52c-0.648,0.432-1.152,0.936-1.872,1.296
	c-0.216,0.144-0.432,0.216-0.648,0.288c-1.152,0.072-7.272,2.376-9.072,4.104c-0.072,0.144-0.216,0.36-0.144,0.432
	c0.072,0.144,0.36,0.216,0.576,0.504c0.072,0.144,0.144,0.36,0.144,0.72c-0.072,1.152-0.216,2.52,0.288,3.528
	c0.288,0.576,0.936,0.72,1.224,1.224c0.288,0.576,0.216,1.224,0.504,1.8c0.288,0.72,0.936,1.368,1.44,1.944
	c0.504,0.576,1.944,1.944,2.448,2.088c-0.936-1.728-1.872-2.52-1.872-3.96c-0.144-4.32,5.256-6.264,9.072-6.336
	c3.024-0.144,5.112,1.08,5.256,4.176c0.072,1.728-0.936,3.168-1.656,4.824c-0.36,0.936-1.152,1.656-1.944,2.304
	c-1.224,0.936-2.736,2.088-4.392,2.16c-1.08,0-2.232-0.504-3.024-1.08c0,0.72,0.936,1.872,1.44,2.448
	c0.288,0.36,0.792,0.936,1.08,1.296c0.432,0.432,0.936,0.648,1.512,0.792c0.72,0.288,0.72,0.576,1.512,0.792
	c0.504,0.144,1.656,0.288,2.52,0.36c2.376,0.144,3.96-0.864,5.544-2.592c-0.864,0.432-2.736,0.72-3.096,0.36
	c-0.216-0.072-0.288-0.432-0.288-0.72c-0.144-1.44,0.864-1.728,1.872-2.52c0.72-0.504,1.656-0.936,2.52-1.224
	c1.224-0.432,3.744-0.792,4.896-1.368c2.664-1.368,4.248-4.824,3.744-7.56c-0.288-1.296-0.864-2.448-1.728-3.456l0.792-0.648
	c1.008,1.152,1.8,2.592,2.088,3.96c0.432,2.16-0.648,4.752-1.728,6.624C240.976,426.992,242.92,429.152,243.496,430.304
	L243.496,430.304z M219.664,410.648c0.288-0.432,1.08-0.792,1.8-1.224c1.656-0.936,3.816-1.728,4.824-2.088
	c0.432-0.216,1.152-0.36,1.44-0.072c0.072,0.576-0.72,0.864-1.152,1.224c-0.576,0.504-1.224,1.008-1.872,1.368
	c-0.792,0.504-1.368,0.936-2.232,1.296c-0.432,0.216-1.08,0.288-1.584,0.216C220.456,411.296,219.448,411.08,219.664,410.648z"/>
</svg>
